<svg id="svg" version="1.1" width="400" height="400" viewBox="0 0 400 400" xmlns="http://www.w3.org/2000/svg" xmlns:xlink="http://www.w3.org/1999/xlink"><g id="svgg"><path id="path0" d="M180.200 12.422 C 178.104 12.601,178.896 12.635,182.493 12.520 L 187.985 12.345 188.100 21.672 L 188.215 31.000 188.308 21.500 L 188.400 12.000 185.900 12.075 C 184.525 12.116,181.960 12.272,180.200 12.422 M200.400 20.878 L 200.400 29.356 204.300 33.200 C 206.445 35.314,210.952 39.634,214.316 42.800 C 222.927 50.905,222.161 48.879,222.400 64.178 L 222.600 76.957 225.200 78.331 C 249.861 91.369,232.306 127.582,207.204 115.454 C 191.718 107.973,191.836 86.553,207.406 78.561 L 210.600 76.922 210.707 66.654 C 210.794 58.273,210.706 56.179,210.229 55.256 C 209.711 54.254,199.928 44.676,196.500 41.814 L 195.200 40.729 193.900 41.798 C 190.818 44.334,177.931 56.976,177.444 57.941 C 176.648 59.521,176.340 76.065,176.659 100.051 L 176.931 120.455 179.220 121.610 C 195.358 129.757,196.861 148.111,182.255 158.686 C 181.125 159.504,180.110 160.297,180.000 160.448 C 179.890 160.599,179.890 173.077,180.000 188.175 L 180.200 215.628 184.600 219.921 C 187.020 222.282,191.789 226.820,195.198 230.007 C 198.607 233.193,202.418 236.759,203.668 237.932 C 207.412 241.447,207.069 236.614,207.348 289.775 C 207.488 316.406,207.750 337.048,207.950 337.175 C 208.144 337.299,210.619 339.560,213.448 342.200 C 216.278 344.840,219.854 348.177,221.396 349.617 C 222.938 351.056,225.910 353.746,228.000 355.596 C 230.090 357.445,232.266 359.378,232.835 359.891 L 233.869 360.825 238.835 356.529 C 243.465 352.522,249.404 347.285,252.900 344.124 L 254.400 342.768 254.405 293.084 L 254.410 243.400 248.905 238.075 C 245.877 235.146,241.897 231.366,240.059 229.675 C 238.222 227.984,236.242 225.790,235.659 224.800 L 234.600 223.000 234.400 211.843 C 234.232 202.483,234.103 200.633,233.600 200.355 C 233.270 200.172,231.774 199.444,230.275 198.736 C 211.262 189.753,218.873 159.973,240.173 160.005 C 262.616 160.038,269.597 189.464,249.500 199.323 L 246.400 200.844 246.404 208.922 C 246.410 219.694,246.395 219.624,249.354 222.519 C 252.282 225.384,259.910 232.148,260.418 232.330 C 260.764 232.454,273.894 220.901,276.000 218.619 L 277.000 217.536 277.072 165.968 L 277.145 114.401 276.072 114.172 C 255.672 109.803,244.239 88.569,252.096 69.641 C 258.395 54.465,275.235 46.215,291.071 50.546 C 294.254 51.416,293.582 50.679,285.620 44.564 C 261.725 26.209,226.087 12.586,201.500 12.408 L 200.400 12.400 200.400 20.878 M173.905 13.083 C 174.402 13.179,175.122 13.175,175.505 13.075 C 175.887 12.975,175.480 12.896,174.600 12.901 C 173.720 12.905,173.407 12.987,173.905 13.083 M168.200 13.600 L 166.600 13.886 168.000 13.896 C 168.770 13.901,169.940 13.768,170.600 13.600 C 172.228 13.186,170.513 13.186,168.200 13.600 M161.200 14.800 C 159.856 15.231,161.308 15.231,163.000 14.800 C 164.078 14.526,164.098 14.494,163.200 14.487 C 162.650 14.483,161.750 14.624,161.200 14.800 M157.000 15.600 C 155.911 15.877,155.893 15.907,156.800 15.925 C 157.350 15.935,158.160 15.789,158.600 15.600 C 159.586 15.176,158.666 15.176,157.000 15.600 M155.369 24.000 C 155.369 28.510,155.427 30.355,155.498 28.100 C 155.570 25.845,155.570 22.155,155.498 19.900 C 155.427 17.645,155.369 19.490,155.369 24.000 M184.216 35.140 L 180.631 39.000 183.943 35.800 C 186.634 33.200,188.530 31.023,187.914 31.240 C 187.851 31.262,186.187 33.017,184.216 35.140 M157.920 35.000 C 159.937 37.397,164.174 41.588,167.627 44.604 C 168.632 45.482,167.912 44.727,166.027 42.928 C 164.142 41.128,161.093 38.068,159.250 36.128 C 157.187 33.955,156.676 33.522,157.920 35.000 M176.388 42.700 L 173.800 45.400 176.500 42.812 C 177.985 41.388,179.200 40.173,179.200 40.112 C 179.200 39.817,178.793 40.192,176.388 42.700 M172.397 46.204 C 171.756 46.886,171.188 47.136,170.627 46.985 C 169.850 46.775,169.846 46.790,170.546 47.227 C 171.176 47.619,171.488 47.497,172.539 46.446 C 173.224 45.761,173.684 45.200,173.562 45.200 C 173.440 45.200,172.915 45.652,172.397 46.204 M275.800 55.157 C 249.754 61.647,247.195 97.926,272.089 107.755 C 290.393 114.981,310.000 101.741,310.000 82.154 C 310.000 64.182,293.104 50.845,275.800 55.157 M289.331 57.780 C 316.953 66.370,311.227 107.200,282.400 107.200 C 251.689 107.200,248.155 62.887,278.400 57.047 C 280.235 56.693,287.375 57.172,289.331 57.780 M279.800 58.814 C 274.964 59.343,269.565 61.721,266.884 64.505 L 265.567 65.872 266.932 68.436 C 269.562 73.380,273.133 79.378,273.524 79.508 C 273.741 79.580,274.506 78.596,275.224 77.320 C 275.942 76.044,278.571 71.544,281.065 67.319 C 286.900 57.438,286.988 58.029,279.800 58.814 M286.791 61.100 C 281.500 70.032,279.969 72.934,280.405 73.203 C 281.179 73.681,303.498 73.689,303.793 73.211 C 304.871 71.468,297.471 63.319,292.758 61.059 C 288.809 59.165,287.933 59.171,286.791 61.100 M261.637 71.300 C 259.288 75.959,258.538 79.911,259.119 84.565 C 259.675 89.027,259.166 88.787,268.100 88.794 C 276.866 88.801,276.475 89.114,273.735 84.286 C 271.001 79.470,270.081 77.836,267.200 72.670 C 264.033 66.991,263.834 66.942,261.637 71.300 M68.285 73.241 C 66.573 75.406,65.135 77.317,65.092 77.488 C 65.048 77.660,64.564 78.185,64.017 78.656 C 62.947 79.576,62.367 93.989,63.400 94.006 C 63.647 94.010,63.638 94.125,63.377 94.306 C 63.145 94.468,62.705 95.216,62.400 95.970 C 61.859 97.305,57.433 101.983,50.244 108.819 C 48.288 110.678,46.298 112.830,45.821 113.600 C 44.678 115.448,43.139 119.578,43.423 120.037 C 43.546 120.237,43.478 120.400,43.270 120.400 C 42.703 120.400,42.416 121.933,42.942 122.149 C 43.266 122.282,43.257 122.346,42.913 122.368 C 41.986 122.429,39.755 131.218,38.640 139.200 C 37.292 148.858,37.346 161.763,38.737 162.131 C 39.304 162.282,39.295 162.314,38.675 162.354 C 37.890 162.404,37.904 162.890,38.852 168.800 C 40.477 178.933,44.292 191.726,45.567 191.324 C 46.056 191.170,46.079 191.211,45.670 191.504 C 45.053 191.947,45.262 192.534,48.015 198.100 C 50.117 202.349,49.403 202.377,55.580 197.800 C 58.400 195.710,60.865 194.000,61.058 194.000 C 61.252 194.000,64.139 196.745,67.475 200.100 L 73.540 206.200 73.670 221.901 L 73.800 237.602 78.600 242.181 C 81.240 244.699,83.529 246.769,83.686 246.780 C 84.008 246.803,84.312 205.875,84.000 204.553 C 83.890 204.087,80.110 199.790,75.600 195.004 C 71.090 190.218,67.181 185.920,66.914 185.451 C 65.908 183.687,66.220 131.136,67.245 129.833 C 67.710 129.242,71.400 125.493,75.445 121.502 C 79.490 117.510,82.800 114.123,82.800 113.975 C 82.800 113.826,79.019 117.416,74.397 121.952 L 65.994 130.200 65.997 157.646 L 66.000 185.092 66.879 186.246 C 67.746 187.385,69.828 189.588,78.932 199.000 L 83.575 203.800 83.587 225.091 L 83.600 246.382 81.463 244.279 C 80.288 243.123,78.188 241.162,76.796 239.923 L 74.267 237.669 74.267 221.969 L 74.267 206.269 69.822 201.835 C 67.377 199.396,64.444 196.513,63.303 195.429 L 61.229 193.458 59.814 194.220 C 59.036 194.639,58.400 195.109,58.400 195.264 C 58.400 195.419,58.085 195.646,57.700 195.769 C 57.315 195.891,56.550 196.404,56.000 196.908 C 54.528 198.257,51.226 200.561,51.042 200.367 C 50.513 199.813,49.600 195.501,49.600 193.559 L 49.600 191.264 53.800 187.353 L 58.000 183.442 58.000 154.591 L 58.000 125.739 68.152 115.733 C 73.736 110.229,78.494 105.383,78.725 104.963 C 78.956 104.543,74.345 108.997,68.477 114.860 C 62.609 120.722,57.689 125.942,57.544 126.460 C 57.399 126.977,57.262 140.051,57.240 155.513 L 57.200 183.627 54.900 185.754 C 49.967 190.317,49.600 190.584,49.600 189.618 C 49.600 189.142,49.420 188.864,49.200 189.000 C 48.937 189.163,48.800 185.330,48.800 177.800 C 48.800 170.270,48.937 166.437,49.200 166.600 C 49.464 166.763,49.600 161.730,49.600 151.800 C 49.600 141.870,49.464 136.837,49.200 137.000 C 48.940 137.161,48.800 135.137,48.800 131.224 C 48.800 127.911,48.935 125.199,49.100 125.199 C 49.441 125.197,51.030 121.560,50.891 121.100 C 50.841 120.935,51.018 120.800,51.285 120.800 C 51.935 120.800,70.701 102.093,71.428 100.720 C 72.052 99.541,72.311 69.824,71.700 69.476 C 71.535 69.382,69.998 71.076,68.285 73.241 M289.228 75.583 C 288.863 75.808,289.958 78.067,293.235 83.847 C 295.715 88.221,298.296 92.775,298.972 93.967 C 300.569 96.786,300.869 96.826,302.350 94.420 C 305.493 89.312,307.054 77.968,304.892 75.952 C 304.470 75.558,289.825 75.213,289.228 75.583 M314.968 81.700 C 314.976 96.647,305.881 109.093,291.800 113.406 L 289.000 114.264 288.800 167.832 C 288.618 216.616,288.541 221.507,287.940 222.600 C 287.113 224.105,283.158 227.950,275.200 234.987 C 271.790 238.002,268.415 241.081,267.700 241.828 L 266.400 243.188 266.400 278.329 C 266.400 297.657,266.518 318.314,266.662 324.235 L 266.924 335.000 295.362 334.958 C 327.693 334.911,329.364 334.765,336.098 331.391 C 348.145 325.356,351.260 315.173,346.406 297.686 C 341.962 281.674,342.506 274.966,348.795 268.206 C 354.236 262.357,353.971 259.022,347.698 254.400 C 344.907 252.343,344.755 251.992,346.352 251.285 C 354.192 247.815,356.246 242.489,351.866 236.985 C 343.631 226.636,341.106 216.244,346.234 213.811 C 346.932 213.479,349.190 212.840,351.252 212.389 C 366.025 209.160,369.332 207.646,371.682 203.039 C 375.050 196.438,372.220 190.494,357.548 173.355 C 349.957 164.487,336.549 148.642,333.957 145.476 C 328.848 139.235,328.346 138.567,327.282 136.600 L 326.200 134.600 326.188 121.600 C 326.173 106.003,325.327 100.162,321.614 90.000 C 320.302 86.410,315.645 76.800,315.217 76.800 C 315.079 76.800,314.967 79.005,314.968 81.700 M63.876 86.300 C 63.775 86.685,63.693 86.370,63.693 85.600 C 63.693 84.830,63.775 84.515,63.876 84.900 C 63.976 85.285,63.976 85.915,63.876 86.300 M289.407 87.098 C 287.557 90.301,283.377 97.413,280.912 101.552 C 278.738 105.203,278.841 105.600,281.968 105.600 C 287.427 105.600,293.353 103.524,297.200 100.263 C 299.266 98.513,299.345 98.213,298.213 96.420 C 297.656 95.538,297.200 94.745,297.200 94.658 C 297.200 94.335,291.935 85.380,291.461 84.898 C 291.068 84.499,290.651 84.945,289.407 87.098 M65.083 89.295 C 64.987 89.793,64.905 89.480,64.901 88.600 C 64.896 87.720,64.975 87.313,65.075 87.695 C 65.175 88.078,65.179 88.798,65.083 89.295 M214.094 87.992 C 209.180 89.157,205.973 94.550,207.359 99.318 C 209.780 107.646,221.062 108.629,224.988 100.855 C 228.501 93.897,221.927 86.134,214.094 87.992 M261.700 90.728 C 260.585 90.886,260.580 90.801,261.857 93.410 C 264.585 98.980,274.946 106.475,276.995 104.359 C 277.746 103.582,284.931 91.198,284.740 91.007 C 284.548 90.814,262.935 90.552,261.700 90.728 M77.348 130.648 C 76.496 131.218,75.395 132.056,74.900 132.512 L 74.000 133.339 74.000 157.812 L 74.000 182.284 78.839 187.342 C 83.403 192.113,84.400 192.949,84.400 192.000 C 84.400 191.780,84.199 191.600,83.954 191.600 C 83.708 191.600,81.460 189.485,78.957 186.900 L 74.406 182.200 74.403 157.756 L 74.400 133.312 75.300 132.654 C 79.389 129.667,78.714 129.744,81.800 131.914 L 83.400 133.038 83.600 162.219 C 83.790 189.938,83.817 190.789,84.134 179.200 C 84.317 172.490,84.407 159.464,84.334 150.254 L 84.200 133.508 82.739 132.254 C 79.702 129.647,79.107 129.469,77.348 130.648 M170.300 131.882 C 170.795 131.978,171.605 131.978,172.100 131.882 C 172.595 131.787,172.190 131.709,171.200 131.709 C 170.210 131.709,169.805 131.787,170.300 131.882 M165.076 134.100 C 163.830 135.333,163.825 135.349,164.981 134.403 C 165.652 133.855,166.371 133.270,166.580 133.103 C 166.789 132.936,166.831 132.800,166.674 132.800 C 166.517 132.800,165.798 133.385,165.076 134.100 M177.600 134.600 C 178.346 135.370,179.047 136.000,179.157 136.000 C 179.267 136.000,178.746 135.370,178.000 134.600 C 177.254 133.830,176.553 133.200,176.443 133.200 C 176.333 133.200,176.854 133.830,177.600 134.600 M75.388 157.800 C 75.388 171.220,75.438 176.652,75.500 169.871 C 75.561 163.090,75.561 152.110,75.500 145.471 C 75.438 138.832,75.388 144.380,75.388 157.800 M64.974 144.800 C 64.974 150.410,65.030 152.705,65.099 149.900 C 65.168 147.095,65.168 142.505,65.099 139.700 C 65.030 136.895,64.974 139.190,64.974 144.800 M161.701 141.000 C 161.705 141.880,161.787 142.193,161.883 141.695 C 161.979 141.198,161.975 140.478,161.875 140.095 C 161.775 139.713,161.696 140.120,161.701 141.000 M162.400 144.324 C 162.400 145.816,166.101 149.179,168.400 149.775 C 168.950 149.918,168.410 149.532,167.200 148.917 C 165.629 148.119,164.629 147.244,163.700 145.855 C 162.985 144.785,162.400 144.096,162.400 144.324 M177.517 147.241 C 176.482 148.318,175.710 149.200,175.803 149.200 C 176.167 149.200,178.853 146.648,179.229 145.945 C 179.777 144.922,179.664 145.007,177.517 147.241 M39.896 155.485 C 39.816 156.758,39.751 155.820,39.750 153.400 C 39.749 150.980,39.814 149.938,39.894 151.085 C 39.975 152.232,39.976 154.212,39.896 155.485 M170.705 150.283 C 171.202 150.379,171.922 150.375,172.305 150.275 C 172.687 150.175,172.280 150.096,171.400 150.101 C 170.520 150.105,170.207 150.187,170.705 150.283 M237.436 171.829 C 230.359 174.422,228.621 182.605,234.119 187.445 C 241.801 194.207,253.313 186.131,249.048 176.972 C 246.968 172.505,241.818 170.224,237.436 171.829 M133.510 173.530 C 133.130 173.681,134.057 173.803,135.570 173.802 C 137.082 173.801,138.113 173.668,137.860 173.506 C 137.292 173.143,134.446 173.159,133.510 173.530 M130.467 175.500 L 128.965 177.000 130.382 175.801 C 131.162 175.142,131.971 174.467,132.180 174.301 C 132.389 174.135,132.427 174.000,132.265 174.000 C 132.102 174.000,131.293 174.675,130.467 175.500 M127.979 178.655 C 127.758 179.236,127.652 179.785,127.743 179.876 C 127.833 179.967,128.099 179.492,128.333 178.820 C 128.853 177.328,128.539 177.182,127.979 178.655 M142.812 178.400 C 142.812 178.730,142.987 179.270,143.200 179.600 C 143.545 180.133,143.588 180.133,143.588 179.600 C 143.588 179.270,143.413 178.730,143.200 178.400 C 142.855 177.867,142.812 177.867,142.812 178.400 M127.328 182.800 C 127.328 184.230,127.401 184.815,127.489 184.100 C 127.578 183.385,127.578 182.215,127.489 181.500 C 127.401 180.785,127.328 181.370,127.328 182.800 M143.720 182.800 C 143.720 184.010,143.795 184.505,143.887 183.900 C 143.978 183.295,143.978 182.305,143.887 181.700 C 143.795 181.095,143.720 181.590,143.720 182.800 M64.893 182.800 C 64.893 183.570,64.975 183.885,65.076 183.500 C 65.176 183.115,65.176 182.485,65.076 182.100 C 64.975 181.715,64.893 182.030,64.893 182.800 M127.600 186.124 C 127.600 186.411,127.868 186.996,128.195 187.424 C 128.738 188.134,128.752 188.089,128.355 186.900 C 127.903 185.543,127.600 185.232,127.600 186.124 M142.966 186.592 C 142.816 187.189,142.062 188.515,141.291 189.539 C 140.193 190.996,140.117 191.190,140.940 190.434 C 142.071 189.395,143.838 186.105,143.465 185.732 C 143.341 185.607,143.116 185.994,142.966 186.592 M129.406 189.312 C 129.792 189.924,130.209 190.324,130.332 190.201 C 130.455 190.078,130.139 189.578,129.630 189.089 L 128.704 188.200 129.406 189.312 M131.044 190.871 C 131.337 191.346,133.595 192.473,133.954 192.324 C 134.119 192.256,133.485 191.826,132.545 191.368 C 131.606 190.911,130.930 190.687,131.044 190.871 M173.832 228.313 L 173.064 229.400 174.140 228.423 L 175.216 227.446 177.308 229.423 L 179.400 231.400 177.415 229.300 C 175.143 226.896,174.883 226.824,173.832 228.313 M180.800 232.466 C 180.800 232.681,188.954 240.723,192.800 244.302 L 195.000 246.350 195.203 293.675 L 195.407 341.000 195.503 293.877 L 195.600 246.753 193.900 245.039 C 190.006 241.111,180.800 232.275,180.800 232.466 M75.301 236.200 C 75.305 237.080,75.387 237.393,75.483 236.895 C 75.579 236.398,75.575 235.678,75.475 235.295 C 75.375 234.913,75.296 235.320,75.301 236.200 M166.694 236.855 C 165.866 237.925,165.269 238.800,165.367 238.800 C 165.657 238.800,168.528 235.193,168.357 235.044 C 168.270 234.970,167.522 235.785,166.694 236.855 M163.603 240.860 L 162.400 242.520 162.400 300.586 L 162.400 358.652 163.800 359.319 C 165.507 360.134,165.675 359.866,164.000 359.000 L 162.800 358.379 162.800 300.450 L 162.800 242.520 164.003 240.860 C 164.664 239.947,165.115 239.200,165.005 239.200 C 164.895 239.200,164.264 239.947,163.603 240.860 M195.613 341.478 C 195.632 341.921,197.183 343.751,197.376 343.557 C 197.462 343.470,197.097 342.895,196.566 342.278 C 196.035 341.660,195.606 341.300,195.613 341.478 M198.047 344.300 C 198.073 344.465,199.288 345.675,200.747 346.989 L 203.400 349.378 200.812 346.689 C 198.181 343.956,197.964 343.769,198.047 344.300 M203.600 349.340 C 203.600 349.535,205.845 351.694,210.300 355.782 C 211.455 356.842,212.400 357.625,212.400 357.522 C 212.400 357.419,210.420 355.490,208.000 353.236 C 205.580 350.981,203.600 349.228,203.600 349.340 M213.239 358.254 C 213.280 358.623,224.400 369.017,224.400 368.687 C 224.400 368.580,221.880 366.110,218.800 363.200 C 215.720 360.290,213.217 358.064,213.239 358.254 M167.200 360.979 C 167.200 361.089,167.740 361.459,168.400 361.800 C 169.060 362.141,169.600 362.331,169.600 362.221 C 169.600 362.111,169.060 361.741,168.400 361.400 C 167.740 361.059,167.200 360.869,167.200 360.979 M170.000 362.579 C 170.000 362.689,170.540 363.059,171.200 363.400 C 171.860 363.741,172.400 363.931,172.400 363.821 C 172.400 363.711,171.860 363.341,171.200 363.000 C 170.540 362.659,170.000 362.469,170.000 362.579 M173.600 364.584 C 173.600 364.694,174.320 365.151,175.200 365.600 C 176.080 366.049,176.800 366.326,176.800 366.216 C 176.800 366.106,176.080 365.649,175.200 365.200 C 174.320 364.751,173.600 364.474,173.600 364.584 M224.800 368.872 C 224.800 369.001,225.520 369.826,226.400 370.706 C 227.280 371.586,228.000 372.184,228.000 372.034 C 228.000 371.885,227.280 371.059,226.400 370.200 C 225.520 369.341,224.800 368.743,224.800 368.872 M186.800 372.192 C 186.800 372.297,187.520 372.751,188.400 373.200 C 190.383 374.212,190.500 373.974,188.577 372.840 C 187.112 371.975,186.800 371.861,186.800 372.192 M228.101 374.600 C 228.105 375.480,228.187 375.793,228.283 375.295 C 228.379 374.798,228.375 374.078,228.275 373.695 C 228.175 373.313,228.096 373.720,228.101 374.600 M198.000 378.584 C 198.000 378.694,198.720 379.151,199.600 379.600 C 200.480 380.049,201.200 380.326,201.200 380.216 C 201.200 380.106,200.480 379.649,199.600 379.200 C 198.720 378.751,198.000 378.474,198.000 378.584 M205.400 382.674 C 205.945 383.221,211.502 386.214,211.000 385.690 C 210.780 385.461,209.340 384.598,207.800 383.773 C 206.260 382.948,205.180 382.454,205.400 382.674 M217.600 389.390 C 217.600 389.500,218.860 390.224,220.400 391.000 C 221.940 391.776,223.200 392.320,223.200 392.210 C 223.200 392.100,221.940 391.376,220.400 390.600 C 218.860 389.824,217.600 389.280,217.600 389.390 M223.600 392.584 C 223.600 392.694,224.320 393.151,225.200 393.600 C 226.080 394.049,226.800 394.326,226.800 394.216 C 226.800 394.106,226.080 393.649,225.200 393.200 C 224.320 392.751,223.600 392.474,223.600 392.584 " stroke="none" fill="#2d81b9" fill-rule="evenodd"></path><path id="path1" d="M139.000 21.165 C 127.363 25.244,111.200 32.825,111.200 34.206 C 111.200 34.461,115.975 39.333,121.812 45.034 C 129.861 52.897,132.524 55.738,132.837 56.800 C 133.650 59.554,133.135 114.357,132.282 115.876 C 131.424 117.404,126.071 122.519,117.081 130.400 L 110.466 136.200 110.433 201.800 L 110.400 267.400 111.245 269.600 C 114.286 277.514,115.073 289.507,113.635 306.000 C 111.607 329.270,109.583 326.209,138.538 343.680 C 144.664 347.376,149.839 350.400,150.038 350.400 C 150.333 350.400,150.729 246.870,150.448 243.200 C 150.366 242.138,150.134 241.898,138.729 231.100 C 135.070 227.635,131.519 223.959,130.838 222.932 L 129.600 221.063 129.599 212.231 L 129.597 203.400 127.715 202.626 C 123.256 200.792,118.577 194.665,117.015 188.616 C 112.499 171.122,129.246 155.439,144.314 163.052 C 159.595 170.772,158.845 195.195,143.100 202.587 L 141.600 203.291 141.600 207.987 C 141.600 210.570,141.717 213.805,141.861 215.177 L 142.121 217.672 148.161 223.606 C 157.344 232.628,156.111 232.267,160.061 227.088 C 161.400 225.332,162.820 223.514,163.217 223.048 C 168.177 217.215,167.640 221.468,167.510 189.018 L 167.400 161.436 165.948 161.134 C 157.280 159.333,150.670 151.594,150.119 142.600 C 149.591 133.993,152.998 127.722,161.100 122.384 L 164.400 120.210 164.400 89.146 L 164.400 58.083 160.654 54.341 C 158.594 52.284,154.160 47.998,150.799 44.817 C 143.337 37.754,143.600 38.315,143.600 29.463 C 143.600 22.113,143.386 19.986,142.650 20.022 C 142.403 20.034,140.760 20.549,139.000 21.165 M99.976 41.300 C 98.143 42.675,96.571 44.033,96.483 44.317 C 96.394 44.602,100.456 49.012,105.509 54.117 L 114.697 63.400 114.971 66.650 C 115.294 70.466,115.256 100.306,114.922 105.080 L 114.693 108.359 110.478 112.480 C 108.159 114.746,103.053 119.813,99.131 123.741 L 92.000 130.882 92.034 190.341 C 92.071 256.761,91.973 253.907,94.289 255.955 C 95.188 256.750,97.121 258.455,98.584 259.745 C 100.047 261.034,101.369 261.964,101.522 261.811 C 101.675 261.658,101.890 232.924,102.000 197.956 L 102.200 134.378 108.016 128.689 C 111.215 125.560,116.394 120.570,119.526 117.600 L 125.220 112.200 125.181 87.800 C 125.159 74.380,125.005 62.438,124.838 61.262 L 124.534 59.123 114.306 48.962 C 108.680 43.373,103.904 38.800,103.693 38.800 C 103.481 38.800,101.808 39.925,99.976 41.300 M79.228 105.233 C 79.244 105.985,79.412 106.960,79.603 107.400 C 79.826 107.915,79.867 107.487,79.718 106.200 C 79.444 103.822,79.189 103.319,79.228 105.233 M39.742 153.800 C 39.741 155.780,39.808 156.640,39.892 155.712 C 39.976 154.784,39.977 153.164,39.895 152.112 C 39.812 151.060,39.743 151.820,39.742 153.800 " stroke="none" fill="#d42433" fill-rule="evenodd"></path><path id="path2" d="M0.000 200.000 L 0.000 400.000 200.000 400.000 L 400.000 400.000 400.000 200.000 L 400.000 0.000 200.000 0.000 L 0.000 0.000 0.000 200.000 M188.400 21.220 C 188.400 32.413,189.003 31.006,180.922 38.671 C 172.046 47.091,171.312 47.715,170.715 47.355 C 169.160 46.417,160.577 38.134,157.745 34.839 L 155.200 31.878 155.200 23.947 C 155.200 16.049,155.204 16.014,156.100 15.811 C 164.741 13.848,176.801 12.335,185.900 12.072 L 188.400 12.000 188.400 21.220 M207.800 12.978 C 237.447 16.180,265.203 28.067,290.512 48.400 C 293.539 50.832,293.648 51.251,291.071 50.546 C 275.235 46.215,258.395 54.465,252.096 69.641 C 244.239 88.569,255.672 109.803,276.072 114.172 L 277.145 114.401 277.072 165.968 L 277.000 217.536 276.000 218.619 C 273.894 220.901,260.764 232.454,260.418 232.330 C 259.910 232.148,252.282 225.384,249.354 222.519 C 246.395 219.624,246.410 219.694,246.404 208.922 L 246.400 200.844 249.500 199.323 C 269.597 189.464,262.616 160.038,240.173 160.005 C 218.873 159.973,211.262 189.753,230.275 198.736 C 231.774 199.444,233.270 200.172,233.600 200.355 C 234.103 200.633,234.232 202.483,234.400 211.843 L 234.600 223.000 235.659 224.800 C 236.242 225.790,238.222 227.984,240.059 229.675 C 241.897 231.366,245.877 235.146,248.905 238.075 L 254.410 243.400 254.405 293.084 L 254.400 342.768 252.900 344.124 C 249.404 347.285,243.465 352.522,238.835 356.529 L 233.869 360.825 232.835 359.891 C 232.266 359.378,230.090 357.445,228.000 355.596 C 225.910 353.746,222.938 351.056,221.396 349.617 C 219.854 348.177,216.278 344.840,213.448 342.200 C 210.619 339.560,208.144 337.299,207.950 337.175 C 207.750 337.048,207.488 316.406,207.348 289.775 C 207.069 236.614,207.412 241.447,203.668 237.932 C 202.418 236.759,198.607 233.193,195.198 230.007 C 191.789 226.820,187.020 222.282,184.600 219.921 L 180.200 215.628 180.000 188.175 C 179.890 173.077,179.890 160.599,180.000 160.448 C 180.110 160.297,181.125 159.504,182.255 158.686 C 196.861 148.111,195.358 129.757,179.220 121.610 L 176.931 120.455 176.659 100.051 C 176.340 76.065,176.648 59.521,177.444 57.941 C 177.931 56.976,190.818 44.334,193.900 41.798 L 195.200 40.729 196.500 41.814 C 199.928 44.676,209.711 54.254,210.229 55.256 C 210.706 56.179,210.794 58.273,210.707 66.654 L 210.600 76.922 207.406 78.561 C 198.290 83.240,193.985 92.098,196.220 101.579 C 198.998 113.366,211.582 120.555,222.681 116.695 C 241.031 110.314,242.529 87.493,225.200 78.331 L 222.600 76.957 222.400 64.178 C 222.161 48.879,222.927 50.905,214.316 42.800 C 210.952 39.634,206.445 35.314,204.300 33.200 L 200.400 29.356 200.400 20.878 L 200.400 12.400 201.500 12.408 C 202.105 12.412,204.940 12.669,207.800 12.978 M143.600 28.433 C 143.833 38.420,143.416 37.321,149.065 42.823 C 151.449 45.145,155.920 49.500,159.000 52.501 L 164.600 57.956 164.722 86.878 C 164.789 102.785,164.733 116.894,164.597 118.231 L 164.351 120.662 161.676 122.212 C 144.815 131.980,146.897 155.365,165.099 160.671 L 167.599 161.400 167.646 168.600 C 167.673 172.560,167.658 185.250,167.614 196.800 C 167.524 220.445,167.883 217.886,164.029 222.425 C 162.803 223.869,160.728 226.434,159.419 228.125 C 156.219 232.257,157.168 232.678,146.800 222.521 L 141.800 217.622 141.800 210.325 C 141.800 203.432,141.844 203.005,142.600 202.614 C 148.095 199.772,150.531 197.440,152.643 193.000 C 162.731 171.792,140.335 151.230,123.568 166.305 C 112.773 176.010,114.886 196.095,127.342 202.189 L 129.600 203.294 129.609 211.747 C 129.616 219.149,129.711 220.406,130.368 221.853 C 131.062 223.382,138.157 230.645,144.400 236.219 C 145.610 237.300,147.545 239.109,148.700 240.239 L 150.800 242.295 150.800 296.324 C 150.800 329.936,150.657 350.441,150.421 350.587 C 149.894 350.913,122.865 334.646,118.168 331.176 C 112.774 327.191,111.735 323.761,112.788 313.400 C 114.843 293.157,114.255 277.459,111.160 270.000 L 110.248 267.800 110.085 202.195 L 109.922 136.590 117.061 130.254 C 127.633 120.872,131.930 116.548,132.387 114.834 C 132.924 112.822,133.014 57.147,132.482 56.153 C 132.070 55.383,118.435 41.753,115.279 38.956 C 111.940 35.997,110.593 34.041,111.455 33.402 C 115.395 30.482,141.334 19.253,143.000 19.747 C 143.242 19.818,143.479 23.243,143.600 28.433 M121.909 56.235 C 122.629 56.914,123.664 58.074,124.209 58.812 L 125.200 60.155 125.200 86.045 C 125.200 100.284,125.095 112.209,124.966 112.545 C 124.837 112.881,121.462 116.176,117.466 119.868 C 107.309 129.250,104.908 131.568,103.462 133.384 L 102.200 134.968 102.341 193.584 C 102.474 249.066,102.324 262.400,101.565 262.400 C 101.222 262.400,98.664 260.166,94.605 256.322 L 92.200 254.044 92.096 192.402 L 91.992 130.760 94.036 128.599 C 95.160 127.411,96.015 126.295,95.937 126.119 C 95.565 125.289,83.623 113.927,83.256 114.054 C 82.736 114.235,68.405 128.359,67.245 129.833 C 66.220 131.136,65.908 183.687,66.914 185.451 C 67.181 185.920,71.090 190.218,75.600 195.004 C 80.110 199.790,83.890 204.087,84.000 204.553 C 84.312 205.875,84.008 246.803,83.686 246.780 C 83.529 246.769,81.240 244.699,78.600 242.181 L 73.800 237.602 73.670 221.901 L 73.540 206.200 67.475 200.100 C 64.139 196.745,61.252 194.000,61.058 194.000 C 60.865 194.000,58.400 195.710,55.580 197.800 C 52.759 199.890,50.293 201.600,50.100 201.600 C 49.062 201.600,43.534 188.389,41.409 180.832 C 35.682 160.465,36.677 137.043,44.109 117.253 C 45.387 113.850,46.360 112.511,50.244 108.815 C 63.633 96.069,62.970 97.182,63.019 87.380 L 63.058 79.760 67.286 74.504 C 69.612 71.613,71.624 69.357,71.757 69.491 C 72.329 70.062,72.016 99.610,71.427 100.720 C 71.111 101.314,66.419 106.210,60.999 111.600 C 55.579 116.990,50.797 122.068,50.373 122.884 C 49.627 124.316,49.600 125.539,49.600 157.426 L 49.600 190.483 51.100 189.182 C 51.925 188.467,53.635 186.924,54.900 185.754 L 57.200 183.627 57.200 155.863 C 57.200 140.594,57.314 127.532,57.453 126.837 C 57.647 125.867,59.928 123.377,67.304 116.087 C 72.583 110.869,77.599 105.729,78.451 104.664 L 80.000 102.728 79.995 80.664 L 79.991 58.600 84.295 54.480 C 86.663 52.215,88.928 50.176,89.328 49.951 C 89.953 49.600,91.252 50.760,98.423 58.071 L 106.789 66.600 106.695 83.200 L 106.600 99.800 99.882 99.851 C 91.990 99.911,92.878 99.443,92.550 103.719 C 92.291 107.085,92.317 107.237,93.425 108.835 C 94.524 110.422,103.045 118.800,103.559 118.800 C 103.697 118.800,106.283 116.414,109.305 113.499 L 114.800 108.197 114.800 86.260 C 114.800 64.406,114.797 64.319,113.932 63.062 C 113.455 62.368,109.434 58.197,104.997 53.794 C 94.407 43.285,94.603 44.586,102.780 39.074 L 103.759 38.413 112.180 46.707 C 116.811 51.268,121.189 55.556,121.909 56.235 M289.000 55.205 C 305.750 59.354,314.703 77.800,307.586 93.496 C 295.668 119.779,256.152 112.324,254.897 83.556 C 254.068 64.541,270.739 50.682,289.000 55.205 M278.400 57.047 C 261.465 60.317,252.251 78.210,259.792 93.184 C 271.783 116.995,307.445 108.616,307.388 82.000 C 307.355 66.672,292.918 54.244,278.400 57.047 M284.967 58.643 C 285.947 59.019,285.884 59.158,281.065 67.319 C 278.571 71.544,275.942 76.044,275.224 77.320 C 274.506 78.596,273.741 79.580,273.524 79.508 C 273.133 79.378,269.562 73.380,266.932 68.436 L 265.567 65.872 266.884 64.505 C 269.565 61.721,274.964 59.343,279.800 58.814 C 283.728 58.385,284.251 58.368,284.967 58.643 M292.758 61.059 C 297.471 63.319,304.871 71.468,303.793 73.211 C 303.498 73.689,281.179 73.681,280.405 73.203 C 279.969 72.934,281.500 70.032,286.791 61.100 C 287.933 59.171,288.809 59.165,292.758 61.059 M267.200 72.670 C 270.081 77.836,271.001 79.470,273.735 84.286 C 276.475 89.114,276.866 88.801,268.100 88.794 C 259.166 88.787,259.675 89.027,259.119 84.565 C 258.538 79.911,259.288 75.959,261.637 71.300 C 263.834 66.942,264.033 66.991,267.200 72.670 M304.892 75.952 C 307.054 77.968,305.493 89.312,302.350 94.420 C 300.869 96.826,300.569 96.786,298.972 93.967 C 298.296 92.775,295.715 88.221,293.235 83.847 C 289.958 78.067,288.863 75.808,289.228 75.583 C 289.825 75.213,304.470 75.558,304.892 75.952 M317.920 81.700 C 320.784 87.424,322.467 91.863,323.855 97.346 C 325.987 105.770,326.174 107.716,326.188 121.600 L 326.200 134.600 327.282 136.600 C 328.346 138.567,328.848 139.235,333.957 145.476 C 336.549 148.642,349.957 164.487,357.548 173.355 C 372.220 190.494,375.050 196.438,371.682 203.039 C 369.332 207.646,366.025 209.160,351.252 212.389 C 349.190 212.840,346.932 213.479,346.234 213.811 C 341.106 216.244,343.631 226.636,351.866 236.985 C 356.246 242.489,354.192 247.815,346.352 251.285 C 344.755 251.992,344.907 252.343,347.698 254.400 C 353.971 259.022,354.236 262.357,348.795 268.206 C 342.506 274.966,341.962 281.674,346.406 297.686 C 351.260 315.173,348.145 325.356,336.098 331.391 C 329.364 334.765,327.693 334.911,295.362 334.958 L 266.924 335.000 266.662 324.235 C 266.518 318.314,266.400 297.657,266.400 278.329 L 266.400 243.188 267.700 241.828 C 268.415 241.081,271.790 238.002,275.200 234.987 C 283.158 227.950,287.113 224.105,287.940 222.600 C 288.541 221.507,288.618 216.616,288.800 167.832 L 289.000 114.264 291.800 113.406 C 305.881 109.093,314.976 96.647,314.968 81.700 C 314.967 79.005,315.079 76.800,315.217 76.800 C 315.356 76.800,316.572 79.005,317.920 81.700 M294.577 89.950 C 296.020 92.453,297.200 94.572,297.200 94.658 C 297.200 94.745,297.656 95.538,298.213 96.420 C 299.345 98.213,299.266 98.513,297.200 100.263 C 293.353 103.524,287.427 105.600,281.968 105.600 C 278.841 105.600,278.738 105.203,280.912 101.552 C 283.377 97.413,287.557 90.301,289.407 87.098 C 291.264 83.884,290.995 83.735,294.577 89.950 M219.472 88.245 C 223.709 89.683,226.301 93.370,225.888 97.370 C 225.014 105.834,215.562 109.162,209.529 103.129 C 202.832 96.432,210.366 85.154,219.472 88.245 M284.740 91.007 C 284.931 91.198,277.746 103.582,276.995 104.359 C 274.561 106.873,260.800 95.566,260.800 91.053 C 260.800 90.597,284.286 90.552,284.740 91.007 M82.739 132.255 L 84.200 133.511 84.200 162.955 C 84.200 179.150,84.082 192.400,83.939 192.400 C 83.795 192.400,81.500 190.124,78.839 187.342 L 74.000 182.284 74.000 157.812 L 74.000 133.339 74.900 132.512 C 78.411 129.283,79.249 129.255,82.739 132.255 M175.449 132.729 C 183.511 136.874,181.494 148.792,172.487 150.232 C 166.530 151.185,160.470 144.898,161.934 139.283 C 163.558 133.054,170.003 129.929,175.449 132.729 M243.251 171.811 C 249.921 174.084,252.156 182.265,247.406 187.015 C 239.788 194.633,226.716 185.734,231.997 176.525 C 234.490 172.180,238.905 170.330,243.251 171.811 M138.790 173.995 C 142.030 175.648,143.464 177.777,143.855 181.518 C 144.926 191.765,134.130 196.618,128.751 188.307 C 123.901 180.815,131.348 170.198,138.790 173.995 M178.460 230.174 C 180.077 231.699,184.595 236.035,188.500 239.808 L 195.600 246.668 195.600 293.870 L 195.600 341.071 196.684 342.436 C 197.281 343.186,200.302 346.140,203.398 349.000 C 225.913 369.796,228.003 371.794,228.046 372.573 C 228.147 374.396,227.914 394.609,227.790 394.738 C 227.512 395.027,205.510 382.999,190.200 374.187 C 183.667 370.426,175.078 365.531,169.600 362.445 C 168.170 361.639,165.965 360.444,164.701 359.790 L 162.402 358.600 162.401 300.531 L 162.400 242.461 163.865 240.531 C 165.804 237.975,167.954 235.293,169.257 233.806 C 172.395 230.227,174.393 227.763,174.396 227.471 C 174.405 226.707,175.698 227.568,178.460 230.174 " stroke="none" fill="none" fill-rule="evenodd"></path><path id="path3" d="M178.400 12.827 C 175.650 12.997,172.050 13.341,170.400 13.590 C 164.783 14.440,160.203 15.237,158.754 15.619 C 157.958 15.829,156.923 16.000,156.454 16.000 C 155.610 16.000,155.600 16.095,155.600 24.195 L 155.600 32.390 162.393 39.181 C 171.465 48.251,170.619 47.808,173.702 45.100 C 175.076 43.894,178.856 40.318,182.102 37.153 L 188.003 31.400 188.002 21.900 L 188.000 12.400 185.700 12.459 C 184.435 12.491,181.150 12.657,178.400 12.827 M63.693 85.600 C 63.693 86.370,63.775 86.685,63.876 86.300 C 63.976 85.915,63.976 85.285,63.876 84.900 C 63.775 84.515,63.693 84.830,63.693 85.600 M78.854 104.710 C 78.825 104.991,74.120 109.839,68.400 115.484 L 58.000 125.748 58.000 154.595 L 58.000 183.442 53.800 187.353 L 49.600 191.264 49.600 193.559 C 49.600 195.501,50.513 199.813,51.042 200.367 C 51.226 200.561,54.528 198.257,56.000 196.908 C 56.550 196.404,57.315 195.891,57.700 195.769 C 58.085 195.646,58.400 195.419,58.400 195.264 C 58.400 195.109,59.036 194.639,59.814 194.220 L 61.229 193.458 63.303 195.429 C 64.444 196.513,67.377 199.396,69.822 201.835 L 74.267 206.269 74.267 221.969 L 74.267 237.669 76.796 239.923 C 78.188 241.162,80.288 243.123,81.463 244.279 L 83.600 246.382 83.587 225.091 L 83.575 203.800 78.932 199.000 C 69.828 189.588,67.746 187.385,66.879 186.246 L 66.000 185.092 65.995 157.646 L 65.990 130.200 74.195 122.163 C 78.708 117.743,82.400 113.978,82.400 113.798 C 82.400 113.618,81.885 112.644,81.255 111.635 C 80.206 109.953,79.462 107.769,79.064 105.200 C 78.979 104.650,78.884 104.430,78.854 104.710 M77.556 131.014 C 76.810 131.555,75.795 132.293,75.300 132.654 L 74.400 133.312 74.403 157.756 L 74.406 182.200 78.957 186.900 C 81.460 189.485,83.573 191.600,83.654 191.600 C 83.734 191.600,83.710 178.424,83.600 162.319 L 83.400 133.038 81.800 131.914 C 78.996 129.942,79.027 129.949,77.556 131.014 M167.423 132.819 C 160.317 136.364,160.343 145.896,167.467 149.047 C 176.545 153.061,184.676 141.983,177.883 134.857 C 175.251 132.096,170.664 131.202,167.423 132.819 M75.500 169.871 C 75.438 176.652,75.388 171.220,75.388 157.800 C 75.388 144.380,75.438 138.832,75.500 145.471 C 75.561 152.110,75.561 163.090,75.500 169.871 M65.099 149.900 C 65.030 152.705,64.974 150.410,64.974 144.800 C 64.974 139.190,65.030 136.895,65.099 139.700 C 65.168 142.505,65.168 147.095,65.099 149.900 M133.347 173.876 C 130.446 174.445,127.600 178.864,127.600 182.800 C 127.600 191.121,136.748 195.585,141.337 189.504 C 146.993 182.009,141.971 172.186,133.347 173.876 M65.076 183.500 C 64.975 183.885,64.893 183.570,64.893 182.800 C 64.893 182.030,64.975 181.715,65.076 182.100 C 65.176 182.485,65.176 183.115,65.076 183.500 M171.749 231.283 C 167.762 235.987,164.305 240.301,163.456 241.632 C 162.851 242.579,162.806 247.392,162.899 300.568 L 163.000 358.472 170.200 362.465 C 174.160 364.661,178.258 366.985,179.306 367.629 C 180.354 368.273,181.296 368.800,181.399 368.800 C 181.502 368.800,182.762 369.520,184.200 370.400 C 185.638 371.280,186.895 372.000,186.993 372.000 C 187.091 372.000,188.805 372.990,190.800 374.200 C 192.795 375.410,194.486 376.400,194.557 376.400 C 194.627 376.400,196.286 377.324,198.243 378.453 C 200.199 379.582,203.330 381.326,205.200 382.327 C 207.070 383.329,209.680 384.801,211.000 385.598 C 212.320 386.396,215.381 388.057,217.802 389.290 C 220.223 390.523,223.345 392.177,224.740 392.966 C 226.135 393.755,227.440 394.400,227.638 394.400 C 227.845 394.400,228.000 389.671,228.000 383.360 L 228.000 372.320 226.300 370.660 C 225.365 369.747,223.250 367.749,221.600 366.221 C 219.950 364.692,217.340 362.248,215.800 360.790 C 214.260 359.332,211.920 357.177,210.600 356.002 C 201.793 348.164,196.038 342.529,195.556 341.274 C 195.355 340.752,195.200 319.911,195.200 293.514 L 195.200 246.680 188.500 240.205 C 179.467 231.475,175.592 227.823,175.215 227.683 C 175.041 227.619,173.482 229.239,171.749 231.283 M75.483 236.895 C 75.387 237.393,75.305 237.080,75.301 236.200 C 75.296 235.320,75.375 234.913,75.475 235.295 C 75.575 235.678,75.579 236.398,75.483 236.895 " stroke="none" fill="#233aba" fill-rule="evenodd"></path><path id="path4" d="M142.654 19.870 C 142.903 20.051,143.207 20.560,143.328 21.000 C 143.501 21.631,143.532 21.595,143.474 20.831 C 143.433 20.299,143.130 19.790,142.800 19.701 C 142.404 19.594,142.354 19.651,142.654 19.870 M113.600 37.400 C 114.346 38.170,115.047 38.800,115.157 38.800 C 115.267 38.800,114.746 38.170,114.000 37.400 C 113.254 36.630,112.553 36.000,112.443 36.000 C 112.333 36.000,112.854 36.630,113.600 37.400 M144.400 38.525 C 144.400 38.594,144.985 39.179,145.700 39.825 L 147.000 41.000 145.825 39.700 C 144.730 38.488,144.400 38.216,144.400 38.525 M149.600 43.800 C 151.017 45.230,152.267 46.400,152.377 46.400 C 152.487 46.400,151.417 45.230,150.000 43.800 C 148.583 42.370,147.333 41.200,147.223 41.200 C 147.113 41.200,148.183 42.370,149.600 43.800 M118.800 42.125 C 118.800 42.194,119.385 42.779,120.100 43.425 L 121.400 44.600 120.225 43.300 C 119.130 42.088,118.800 41.816,118.800 42.125 M100.600 49.600 C 101.906 50.920,103.065 52.000,103.175 52.000 C 103.285 52.000,102.306 50.920,101.000 49.600 C 99.694 48.280,98.535 47.200,98.425 47.200 C 98.315 47.200,99.294 48.280,100.600 49.600 M154.800 48.525 C 154.800 48.594,155.385 49.179,156.100 49.825 L 157.400 51.000 156.225 49.700 C 155.130 48.488,154.800 48.216,154.800 48.525 M127.400 50.800 C 128.483 51.900,129.460 52.800,129.570 52.800 C 129.680 52.800,128.883 51.900,127.800 50.800 C 126.717 49.700,125.740 48.800,125.630 48.800 C 125.520 48.800,126.317 49.700,127.400 50.800 M85.029 53.799 C 82.483 56.147,80.359 58.098,80.310 58.134 C 80.260 58.170,80.105 68.370,79.964 80.800 C 79.823 93.230,79.690 104.061,79.668 104.868 C 79.586 107.904,81.984 113.696,83.481 114.077 C 83.746 114.145,86.764 116.970,90.188 120.356 L 96.413 126.512 100.053 122.833 L 103.693 119.155 99.135 114.827 C 92.522 108.548,92.218 108.034,92.550 103.719 C 92.878 99.443,91.990 99.911,99.882 99.851 L 106.600 99.800 106.686 83.200 L 106.772 66.600 99.086 58.785 C 94.859 54.487,91.008 50.646,90.529 50.250 C 89.666 49.535,89.618 49.566,85.029 53.799 M164.590 88.600 C 164.590 105.100,164.639 111.908,164.700 103.730 C 164.760 95.551,164.760 82.051,164.700 73.730 C 164.639 65.408,164.590 72.100,164.590 88.600 M124.901 61.400 C 124.905 62.280,124.987 62.593,125.083 62.095 C 125.179 61.598,125.175 60.878,125.075 60.495 C 124.975 60.113,124.896 60.520,124.901 61.400 M132.962 67.400 C 132.962 70.920,133.024 72.306,133.098 70.481 C 133.172 68.656,133.172 65.776,133.097 64.081 C 133.022 62.386,132.961 63.880,132.962 67.400 M114.981 81.800 C 114.981 89.940,115.034 93.213,115.100 89.074 C 115.165 84.934,115.165 78.274,115.099 74.274 C 115.034 70.273,114.981 73.660,114.981 81.800 M132.985 93.200 C 132.985 103.870,133.037 108.235,133.100 102.900 C 133.163 97.565,133.163 88.835,133.100 83.500 C 133.037 78.165,132.985 82.530,132.985 93.200 M64.901 88.600 C 64.905 89.480,64.987 89.793,65.083 89.295 C 65.179 88.798,65.175 88.078,65.075 87.695 C 64.975 87.313,64.896 87.720,64.901 88.600 M114.931 101.800 C 114.933 103.340,115.005 103.921,115.092 103.091 C 115.179 102.261,115.177 101.001,115.089 100.291 C 115.000 99.581,114.929 100.260,114.931 101.800 M122.585 114.900 L 120.600 117.000 122.700 115.015 C 123.855 113.923,124.800 112.978,124.800 112.915 C 124.800 112.617,124.429 112.949,122.585 114.900 M127.588 120.700 L 125.000 123.400 127.700 120.812 C 129.185 119.388,130.400 118.173,130.400 118.112 C 130.400 117.817,129.993 118.192,127.588 120.700 M111.781 124.900 L 110.200 126.600 111.900 125.019 C 113.481 123.548,113.784 123.200,113.481 123.200 C 113.416 123.200,112.651 123.965,111.781 124.900 M48.800 131.224 C 48.800 135.137,48.940 137.161,49.200 137.000 C 49.437 136.854,49.600 134.396,49.600 130.976 C 49.600 127.392,49.448 125.200,49.200 125.200 C 48.951 125.200,48.800 127.475,48.800 131.224 M155.775 126.500 L 154.600 127.800 155.900 126.625 C 156.615 125.979,157.200 125.394,157.200 125.325 C 157.200 125.016,156.870 125.288,155.775 126.500 M114.975 132.100 L 113.800 133.400 115.100 132.225 C 115.815 131.579,116.400 130.994,116.400 130.925 C 116.400 130.616,116.070 130.888,114.975 132.100 M110.195 194.400 C 110.195 226.410,110.242 239.505,110.300 223.500 C 110.358 207.495,110.358 181.305,110.300 165.300 C 110.242 149.295,110.195 162.390,110.195 194.400 M102.194 205.200 C 102.194 233.690,102.242 245.345,102.300 231.100 C 102.358 216.855,102.358 193.545,102.300 179.300 C 102.242 165.055,102.194 176.710,102.194 205.200 M155.600 155.400 C 156.346 156.170,157.047 156.800,157.157 156.800 C 157.267 156.800,156.746 156.170,156.000 155.400 C 155.254 154.630,154.553 154.000,154.443 154.000 C 154.333 154.000,154.854 154.630,155.600 155.400 M148.600 166.400 C 149.683 167.500,150.660 168.400,150.770 168.400 C 150.880 168.400,150.083 167.500,149.000 166.400 C 147.917 165.300,146.940 164.400,146.830 164.400 C 146.720 164.400,147.517 165.300,148.600 166.400 M122.575 166.900 L 121.400 168.200 122.700 167.025 C 123.912 165.930,124.184 165.600,123.875 165.600 C 123.806 165.600,123.221 166.185,122.575 166.900 M48.800 177.800 C 48.800 185.330,48.937 189.163,49.200 189.000 C 49.451 188.845,49.600 184.670,49.600 177.800 C 49.600 170.930,49.451 166.755,49.200 166.600 C 48.937 166.437,48.800 170.270,48.800 177.800 M167.734 178.400 C 167.734 180.050,167.805 180.725,167.891 179.900 C 167.978 179.075,167.978 177.725,167.891 176.900 C 167.805 176.075,167.734 176.750,167.734 178.400 M155.331 182.200 C 155.333 183.740,155.405 184.321,155.492 183.491 C 155.579 182.661,155.577 181.401,155.489 180.691 C 155.400 179.981,155.329 180.660,155.331 182.200 M145.200 220.910 C 145.200 220.971,146.595 222.366,148.300 224.010 L 151.400 227.000 148.410 223.900 C 145.633 221.021,145.200 220.617,145.200 220.910 M136.200 228.800 C 137.728 230.340,139.069 231.600,139.179 231.600 C 139.289 231.600,138.128 230.340,136.600 228.800 C 135.072 227.260,133.731 226.000,133.621 226.000 C 133.511 226.000,134.672 227.260,136.200 228.800 M144.000 236.200 C 144.746 236.970,145.447 237.600,145.557 237.600 C 145.667 237.600,145.146 236.970,144.400 236.200 C 143.654 235.430,142.953 234.800,142.843 234.800 C 142.733 234.800,143.254 235.430,144.000 236.200 M148.600 240.400 C 149.459 241.280,150.252 242.000,150.362 242.000 C 150.472 242.000,149.859 241.280,149.000 240.400 C 148.141 239.520,147.348 238.800,147.238 238.800 C 147.128 238.800,147.741 239.520,148.600 240.400 M150.499 297.343 C 150.405 347.767,150.364 350.472,149.700 350.219 C 149.139 350.005,149.099 350.052,149.500 350.456 C 150.761 351.726,150.802 349.880,150.700 297.179 L 150.597 244.200 150.499 297.343 M92.101 251.800 C 92.105 252.680,92.187 252.993,92.283 252.495 C 92.379 251.998,92.375 251.278,92.275 250.895 C 92.175 250.513,92.096 250.920,92.101 251.800 M97.600 258.925 C 97.600 258.994,98.185 259.579,98.900 260.225 L 100.200 261.400 99.025 260.100 C 97.930 258.888,97.600 258.616,97.600 258.925 M101.600 261.367 C 101.600 261.678,101.375 262.024,101.100 262.135 C 100.801 262.256,100.882 262.350,101.300 262.368 C 101.744 262.388,102.000 262.107,102.000 261.600 C 102.000 261.160,101.910 260.800,101.800 260.800 C 101.690 260.800,101.600 261.055,101.600 261.367 M114.166 291.200 C 114.166 295.270,114.225 296.935,114.298 294.900 C 114.371 292.865,114.371 289.535,114.298 287.500 C 114.225 285.465,114.166 287.130,114.166 291.200 M113.701 301.800 C 113.705 302.680,113.787 302.993,113.883 302.495 C 113.979 301.998,113.975 301.278,113.875 300.895 C 113.775 300.513,113.696 300.920,113.701 301.800 M116.000 329.400 C 116.746 330.170,117.447 330.800,117.557 330.800 C 117.667 330.800,117.146 330.170,116.400 329.400 C 115.654 328.630,114.953 328.000,114.843 328.000 C 114.733 328.000,115.254 328.630,116.000 329.400 " stroke="none" fill="#ea941d" fill-rule="evenodd"></path></g></svg>